<svg id="Capa_1" data-name="Capa 1" xmlns="http://www.w3.org/2000/svg" viewBox="0 0 10.03 9.96"><defs><style>.cls-1{fill:#29337c;}</style></defs><path class="cls-1" d="M0,5.37v-1A4.88,4.88,0,0,1,1.21,1.74c.11-.13.23-.25.35-.37A3.9,3.9,0,0,0,5,3.32,3.93,3.93,0,0,0,8.44,1.37,4.92,4.92,0,0,1,10,5.52a4.85,4.85,0,0,1-1.53,3.1,4,4,0,0,0-6.91,0h0A5,5,0,0,1,.09,5.93,2.72,2.72,0,0,1,0,5.37Z" transform="translate(0 -0.04)"/><path class="cls-1" d="M4.65,10a2.8,2.8,0,0,1-.58-.09,4.73,4.73,0,0,1-2-.84h0a3.28,3.28,0,0,1,2.71-1.7A3.29,3.29,0,0,1,7.92,9.06l-.27.18A5.12,5.12,0,0,1,5.44,10H4.65Z" transform="translate(0 -0.04)"/><path class="cls-1" d="M7.92,1a3.3,3.3,0,0,1-3,1.7A3.28,3.28,0,0,1,2.08,1,4.92,4.92,0,0,1,7.92,1Z" transform="translate(0 -0.04)"/></svg>