<?xml version="1.0" encoding="utf-8"?>
<!-- Generator: Adobe Illustrator 26.0.0, SVG Export Plug-In . SVG Version: 6.00 Build 0)  -->
<svg version="1.1" id="Capa_1" xmlns="http://www.w3.org/2000/svg" xmlns:xlink="http://www.w3.org/1999/xlink" x="0px" y="0px"
	 viewBox="0 0 16 16" style="enable-background:new 0 0 16 16;" xml:space="preserve">
<style type="text/css">
	.st0{fill:#29337C;}
</style>
<path class="st0" d="M7.2,1c-0.4-0.4-1-0.4-1.4,0L0.1,6.6C0,6.8,0,7.2,0.1,7.4s0.5,0.2,0.7,0L1,7.2v5.3C1,13.3,1.7,14,2.5,14H3
	c0-0.2-0.1-0.3,0-0.5V9.4C2.2,9.1,1.8,8.3,2.1,7.5c0.1-0.2,0.2-0.4,0.4-0.6l5.4-5.4L7.2,1z"/>
<path class="st0" d="M8.8,2c0.4-0.4,1-0.4,1.4,0L12,3.8V2.5C12,2.2,12.2,2,12.5,2h1C13.8,2,14,2.2,14,2.5v3.3l1.9,1.9
	c0.2,0.2,0.2,0.5,0,0.7c-0.2,0.2-0.5,0.2-0.7,0L15,8.2v5.3c0,0.8-0.7,1.5-1.5,1.5h-8C4.7,15,4,14.3,4,13.5V8.2L3.9,8.4
	c-0.2,0.2-0.5,0.2-0.7,0C3,8.2,3,7.8,3.1,7.6l0,0L8.8,2z"/>
</svg>
