<?xml version="1.0" encoding="utf-8"?>
<!-- Generator: Adobe Illustrator 26.0.0, SVG Export Plug-In . SVG Version: 6.00 Build 0)  -->
<svg version="1.1" id="Capa_1" xmlns="http://www.w3.org/2000/svg" xmlns:xlink="http://www.w3.org/1999/xlink" x="0px" y="0px"
	 viewBox="0 0 11.4 20" style="enable-background:new 0 0 11.4 20;" xml:space="preserve">
<style type="text/css">
	.st0{fill:#29337C;}
</style>
<path class="st0" d="M3.5,10c0.4-0.4,0.8-0.8,1.2-1.2l6.2-6.2c0.6-0.5,0.7-1.4,0.2-2c-0.2-0.2-0.4-0.4-0.7-0.5C10-0.1,9.5,0,9.1,0.3
	C9,0.4,9,0.5,8.9,0.6L0.6,8.8c-0.6,0.5-0.8,1.4-0.3,2c0.1,0.1,0.2,0.2,0.3,0.3l8.3,8.3c0.4,0.4,1,0.6,1.5,0.5c0.8-0.2,1.2-1,1-1.8
	c-0.1-0.2-0.2-0.5-0.4-0.6c-0.7-0.7-1.4-1.4-2.1-2.1l-5.2-5.2L3.5,10z"/>
</svg>
