<?xml version="1.0" encoding="utf-8"?>
<!-- Generator: Adobe Illustrator 26.0.0, SVG Export Plug-In . SVG Version: 6.00 Build 0)  -->
<svg version="1.1" id="Capa_1" xmlns="http://www.w3.org/2000/svg" xmlns:xlink="http://www.w3.org/1999/xlink" x="0px" y="0px"
	 viewBox="0 0 20 17" style="enable-background:new 0 0 20 17;" xml:space="preserve">
<style type="text/css">
	.st0{fill:#29337C;}
</style>
<path class="st0" d="M12,3.2c1.7,0.4,3.2,1.4,4.4,2.8c1.2,1.4,1.9,3.3,1.9,5.1c0.1,0.4-0.2,0.8-0.7,0.9c-0.1,0-0.1,0-0.2,0H2.6
	c-0.4,0.1-0.8-0.2-0.9-0.6c0-0.1,0-0.2,0-0.3c0.1-3.6,2.5-6.8,6-7.8C8,3.3,8,3.2,8,3c0-0.4,0-0.9,0-1.3c0.1-1,1.1-1.8,2.1-1.7
	C11.2,0.1,12,1,12,2C12,2.4,12,2.8,12,3.2z M11.4,5.5c-0.4-0.1-0.8,0.2-0.9,0.6c-0.1,0.4,0.2,0.8,0.6,0.9c0.1,0,0.2,0,0.2,0
	c0.9,0,1.7,0.4,2.3,1.1c0.2,0.2,0.3,0.4,0.5,0.6c0.2,0.2,0.5,0.3,0.9,0.2c0.3-0.1,0.5-0.4,0.4-0.7c0-0.2-0.1-0.4-0.3-0.6
	C14.4,6.3,13,5.5,11.4,5.5z"/>
<path class="st0" d="M10,17H2.2c-0.9,0.1-1.7-0.4-2-1.2c-0.4-1,0-2.2,1-2.6C1.4,13.1,1.7,13,2,13h16c1.1,0,2,0.8,2,2
	c0,1.1-0.8,2-1.9,2c-0.3,0-0.6,0-0.9,0L10,17z"/>
</svg>
