<?xml version="1.0" encoding="utf-8"?>
<!-- Generator: Adobe Illustrator 26.0.0, SVG Export Plug-In . SVG Version: 6.00 Build 0)  -->
<svg version="1.1" id="Capa_1" xmlns="http://www.w3.org/2000/svg" xmlns:xlink="http://www.w3.org/1999/xlink" x="0px" y="0px"
	 viewBox="0 0 10 10" style="enable-background:new 0 0 10 10;" xml:space="preserve">
<style type="text/css">
	.st0{fill:#FFFFFF;}
</style>
<path class="st0" d="M0,5.4V4.6c0-0.1,0-0.2,0-0.2c0.1-1,0.5-1.9,1.2-2.6c0.1-0.1,0.2-0.2,0.4-0.4c0.7,1.2,2,2,3.4,1.9
	c1.4,0,2.7-0.7,3.4-1.9C9.6,2.4,10.2,4,10,5.5C9.9,6.7,9.3,7.8,8.5,8.6c-0.7-1.2-2-2-3.5-1.9c-1.4,0-2.7,0.7-3.4,1.9l0,0
	C0.8,7.9,0.3,7,0.1,5.9C0.1,5.7,0,5.6,0,5.4z"/>
<path class="st0" d="M4.7,10c-0.2,0-0.4-0.1-0.6-0.1c-0.7-0.1-1.4-0.4-2-0.8l0,0c0.5-1,1.6-1.6,2.7-1.7c1.3-0.1,2.5,0.6,3.1,1.7
	L7.7,9.2C7,9.7,6.2,9.9,5.4,10H5.3H4.7z"/>
<path class="st0" d="M7.9,1c-0.6,1.1-1.8,1.7-3,1.7C3.7,2.7,2.7,2,2.1,1C3.8-0.3,6.2-0.3,7.9,1z"/>
</svg>
