<?xml version="1.0" encoding="utf-8"?>
<!-- Generator: Adobe Illustrator 26.0.0, SVG Export Plug-In . SVG Version: 6.00 Build 0)  -->
<svg version="1.1" id="Capa_1" xmlns="http://www.w3.org/2000/svg" xmlns:xlink="http://www.w3.org/1999/xlink" x="0px" y="0px"
	 viewBox="0 0 9.9 9.9" style="enable-background:new 0 0 9.9 9.9;" xml:space="preserve">
<style type="text/css">
	.st0{fill:#FFFFFF;}
</style>
<path class="st0" d="M6.4,7.6C4.5,8.8,2,8.3,0.7,6.4S0,2,1.9,0.7S6.3,0,7.6,1.9c0.9,1.4,0.9,3.2,0,4.6l0.1,0.1l2,2
	c0.3,0.3,0.3,0.9,0,1.2C9.3,10,8.8,10,8.5,9.7l0,0L6.8,8L6.4,7.6z M1.2,4.1C1.2,5.7,2.5,7,4.1,7S7,5.8,7,4.2S5.8,1.3,4.1,1.2
	c0,0,0,0,0,0C2.5,1.3,1.2,2.5,1.2,4.1z"/>
</svg>
