<?xml version="1.0" encoding="utf-8"?>
<!-- Generator: Adobe Illustrator 26.0.0, SVG Export Plug-In . SVG Version: 6.00 Build 0)  -->
<svg version="1.1" id="Capa_1" xmlns="http://www.w3.org/2000/svg" xmlns:xlink="http://www.w3.org/1999/xlink" x="0px" y="0px"
	 viewBox="0 0 20 17" style="enable-background:new 0 0 20 17;" xml:space="preserve">
<style type="text/css">
	.st0{fill:#FFFFFF;}
</style>
<path class="st0" d="M16,2c0.8,0,1.5,0.2,2.1,0.6c1.2,0.7,1.9,2,1.9,3.3c0,2.4,0,4.8,0,7.1c0,2.2-1.9,4-4.1,3.9c0,0,0,0,0,0H5.2
	c-0.5,0-1.1,0-1.6,0c-2-0.2-3.5-1.8-3.6-3.7c0-2.5,0-5,0-7.5c0-0.2,0-0.4,0.1-0.6C0.5,3.4,2,2.1,3.8,2H4V1c0-0.6,0.4-1,0.9-1
	c0.1,0,0.2,0,0.4,0C5.7,0.1,6,0.4,6,0.8C6,1,6,1.2,6,1.4S6,1.8,6,2h8c0-0.3,0-0.6,0-0.8c0-0.2,0-0.3,0.1-0.5
	c0.1-0.5,0.6-0.7,1.1-0.6c0.5,0,0.8,0.4,0.8,0.9C16,1.3,16,1.6,16,2z M16,4c-0.1,0.7-0.4,1-1,1s-0.8-0.2-1.1-1H6C5.8,4.8,5.5,5,5,5
	S4.2,4.7,4,4H3.9C2.8,4.1,2,5,2,6.1c0,2.3,0,4.6,0,6.9C2,14,2.8,15,3.9,15c0,0,0.1,0,0.1,0h11.9c1.1,0,2-0.8,2.1-1.9c0,0,0,0,0-0.1
	c0-2.3,0-4.7,0-7C18,4.9,17.1,4,16,4L16,4z"/>
<path class="st0" d="M8.7,8.2C8.8,7.8,8.8,7.4,8.9,7C9,6.9,9,6.7,9,6.5c0.1-0.4,0.5-0.7,1-0.7c0.5,0,0.9,0.3,1,0.7
	c0.1,0.5,0.2,1,0.3,1.5c0,0.1,0,0.1,0.1,0.2C11.8,8.1,12.2,8,12.6,8c0.3,0,0.5,0,0.8,0.1C13.8,8.1,14,8.5,14,8.8
	c0.1,0.4-0.1,0.8-0.5,1l-1.4,0.8l0.5,1.1c0.1,0.2,0.2,0.3,0.2,0.5c0.2,0.5-0.1,1.1-0.7,1.2c-0.3,0.1-0.6,0-0.9-0.1
	c-0.4-0.3-0.7-0.7-1.1-1L10,12.2l-0.2,0.1l-1.1,1c-0.3,0.3-0.9,0.4-1.3,0.1c-0.4-0.3-0.5-0.8-0.3-1.2l0.7-1.5
	c-0.4-0.2-0.8-0.5-1.3-0.7C6.5,9.8,6.3,9.7,6.2,9.6C6,9.3,5.9,8.9,6.1,8.6C6.2,8.2,6.5,8,6.9,8C7.3,8,7.8,8,8.2,8.1L8.7,8.2z"/>
</svg>
