<?xml version="1.0" encoding="utf-8"?>
<!-- Generator: Adobe Illustrator 26.0.0, SVG Export Plug-In . SVG Version: 6.00 Build 0)  -->
<svg version="1.1" id="Capa_1" xmlns="http://www.w3.org/2000/svg" xmlns:xlink="http://www.w3.org/1999/xlink" x="0px" y="0px"
	 viewBox="0 0 20 20" style="enable-background:new 0 0 20 20;" xml:space="preserve">
<style type="text/css">
	.st0{fill:#FFFFFF;}
</style>
<path class="st0" d="M0,10C0,4.5,4.5,0,10,0s10,4.5,10,10s-4.5,10-10,10S0,15.5,0,10z M1.3,10c0,4.8,3.9,8.7,8.7,8.6
	s8.7-3.9,8.6-8.7c0-4.8-3.9-8.6-8.7-8.6C5.2,1.3,1.3,5.2,1.3,10C1.3,10,1.3,10,1.3,10z"/>
<path class="st0" d="M11.1,10L7.5,6.3C7.3,6.2,7.2,6,7.2,5.8c0-0.3,0.1-0.5,0.4-0.6c0.2-0.1,0.5-0.1,0.7,0.1c0.1,0,0.1,0.1,0.2,0.1
	l4.1,4.1c0.3,0.2,0.4,0.6,0.2,0.9c0,0.1-0.1,0.1-0.2,0.2l-4.1,4.1c-0.2,0.2-0.5,0.3-0.8,0.2c-0.2-0.1-0.4-0.3-0.4-0.6
	c0-0.2,0.1-0.4,0.2-0.6l3.5-3.5L11.1,10z"/>
</svg>
