<?xml version="1.0" encoding="utf-8"?>
<!-- Generator: Adobe Illustrator 26.0.0, SVG Export Plug-In . SVG Version: 6.00 Build 0)  -->
<svg version="1.1" id="Capa_1" xmlns="http://www.w3.org/2000/svg" xmlns:xlink="http://www.w3.org/1999/xlink" x="0px" y="0px"
	 viewBox="0 0 11.4 20" style="enable-background:new 0 0 11.4 20;" xml:space="preserve">
<style type="text/css">
	.st0{fill:#29337C;}
</style>
<path class="st0" d="M8,10C7.5,9.6,7.1,9.2,6.7,8.8L0.5,2.5c-0.6-0.5-0.7-1.4-0.2-2C0.5,0.3,0.8,0.1,1,0.1C1.5-0.1,1.9,0,2.3,0.3
	c0.1,0.1,0.2,0.2,0.3,0.3l8.3,8.3c0.6,0.5,0.8,1.4,0.3,2c-0.1,0.1-0.2,0.2-0.3,0.3l-8.3,8.3c-0.4,0.4-1,0.6-1.5,0.5
	c-0.8-0.2-1.2-1-1-1.8c0.1-0.2,0.2-0.5,0.4-0.6c0.7-0.7,1.4-1.4,2.1-2.1l5.2-5.2L8,10z"/>
</svg>
