<?xml version="1.0" encoding="utf-8"?>
<!-- Generator: Adobe Illustrator 26.0.0, SVG Export Plug-In . SVG Version: 6.00 Build 0)  -->
<svg version="1.1" id="Capa_1" xmlns="http://www.w3.org/2000/svg" xmlns:xlink="http://www.w3.org/1999/xlink" x="0px" y="0px"
	 viewBox="0 0 20 11.4" style="enable-background:new 0 0 20 11.4;" xml:space="preserve">
<style type="text/css">
	.st0{fill:#FFFFFF;}
</style>
<path class="st0" d="M10,3.5c0.4,0.4,0.8,0.8,1.2,1.2l6.3,6.2c0.5,0.6,1.4,0.7,2,0.2c0.2-0.2,0.4-0.4,0.4-0.7
	c0.1-0.4,0.1-0.9-0.2-1.3C19.6,9,19.5,9,19.4,8.9l-8.3-8.3c-0.5-0.6-1.4-0.8-2-0.3C9,0.4,8.9,0.5,8.9,0.6L0.5,8.9
	c-0.4,0.4-0.6,1-0.5,1.5c0.2,0.8,1,1.2,1.8,1c0.2-0.1,0.5-0.2,0.6-0.4c0.7-0.7,1.4-1.4,2.1-2.1l5.2-5.2L10,3.5z"/>
</svg>
