<?xml version="1.0" encoding="utf-8"?>
<!-- Generator: Adobe Illustrator 26.0.0, SVG Export Plug-In . SVG Version: 6.00 Build 0)  -->
<svg version="1.1" id="Capa_1" xmlns="http://www.w3.org/2000/svg" xmlns:xlink="http://www.w3.org/1999/xlink" x="0px" y="0px"
	 viewBox="0 0 19.8 19.8" style="enable-background:new 0 0 19.8 19.8;" xml:space="preserve">
<style type="text/css">
	.st0{fill:#FFFFFF;}
</style>
<path class="st0" d="M18.7,0c0,0.1,0.1,0,0.2,0c0.5,0.2,0.8,0.6,0.9,1.1v17.2c0.1,0.7-0.4,1.3-1.1,1.4c-0.1,0-0.2,0-0.3,0H6.3
	c-0.7,0.1-1.3-0.4-1.4-1.1c0-0.1,0-0.2,0-0.3v-2.3c0-0.7,0.6-1.2,1.2-1.2s1.2,0.6,1.2,1.2c0,0,0,0,0,0c0,0.3,0,0.7,0,1
	c0,0.2,0,0.2,0.2,0.2h9.5c0.1,0,0.2,0,0.2-0.1V2.6c0-0.1,0-0.2-0.1-0.2H7.6c-0.1,0-0.2,0-0.2,0.2c0,0.4,0,0.7,0,1.1
	c0,0.7-0.6,1.2-1.2,1.2S4.9,4.4,4.9,3.7c0,0,0,0,0,0V1.3c0-0.6,0.4-1.1,1-1.3c0,0,0,0,0,0H18.7z M0,10.2L0,10.2
	c0.2,0.6,0.7,1,1.4,0.9h9c0.1,0,0.1,0,0.2,0c-0.5,0.5-1.1,1-1.6,1.6c-0.5,0.5-0.5,1.3,0,1.7c0,0,0,0,0,0c0.5,0.5,1.2,0.5,1.7,0
	c0,0,0,0,0,0c1.2-1.2,2.5-2.5,3.7-3.7c0.5-0.5,0.5-1.2,0-1.7c0,0,0,0,0,0l-3.7-3.7C10.6,5,10.3,4.9,9.9,4.9c-0.5,0-1,0.3-1.2,0.7
	C8.5,6.1,8.6,6.6,9,7l1.5,1.5l0.1,0.1H1.3c-0.6,0-1.1,0.3-1.2,0.9c0,0,0,0.1-0.1,0.1L0,10.2z"/>
</svg>
