<?xml version="1.0" encoding="utf-8"?>
<!-- Generator: Adobe Illustrator 26.0.0, SVG Export Plug-In . SVG Version: 6.00 Build 0)  -->
<svg version="1.1" id="Capa_1" xmlns="http://www.w3.org/2000/svg" xmlns:xlink="http://www.w3.org/1999/xlink" x="0px" y="0px"
	 viewBox="0 0 20 20" style="enable-background:new 0 0 20 20;" xml:space="preserve">
<style type="text/css">
	.st0{fill:#8C8D8E;}
</style>
<path class="st0" d="M9.4,0h1.2h0.2C11.9,0.1,13,0.4,14,0.8c3.1,1.3,5.3,4.2,5.9,7.5C19.9,8.7,20,9.1,20,9.4v1.1c0,0,0,0.1,0,0.1
	c-0.4,5.5-5.2,9.6-10.7,9.2c-0.2,0-0.4,0-0.6-0.1c-2.6-0.3-4.9-1.7-6.5-3.7c-1.7-2.1-2.4-4.8-2.1-7.5c0.2-2,1.1-3.9,2.5-5.3
	C4,1.6,6.1,0.5,8.3,0.2C8.7,0.1,9,0.1,9.4,0z M1.7,10c0,4.6,3.7,8.3,8.3,8.3s8.3-3.7,8.3-8.3S14.6,1.7,10,1.7c0,0,0,0,0,0
	C5.4,1.7,1.7,5.4,1.7,10C1.7,10,1.7,10,1.7,10z"/>
<path class="st0" d="M10.8,7.2c0,0.7,0,1.5,0,2.2c0,0.1,0,0.2,0.1,0.3l2.1,2.1c0.3,0.3,0.4,0.8,0,1.2c-0.1,0.1-0.3,0.2-0.4,0.2
	c-0.3,0.1-0.5,0-0.7-0.2l-2.5-2.5c-0.2-0.1-0.2-0.4-0.2-0.6c0-1.7,0-3.3,0-5c0-0.5,0.4-0.8,0.8-0.8c0.5,0,0.8,0.4,0.8,0.8
	C10.8,5.8,10.8,6.5,10.8,7.2L10.8,7.2z"/>
</svg>
