<?xml version="1.0" encoding="utf-8"?>
<!-- Generator: Adobe Illustrator 26.0.0, SVG Export Plug-In . SVG Version: 6.00 Build 0)  -->
<svg version="1.1" id="Capa_1" xmlns="http://www.w3.org/2000/svg" xmlns:xlink="http://www.w3.org/1999/xlink" x="0px" y="0px"
	 viewBox="0 0 16 16" style="enable-background:new 0 0 16 16;" xml:space="preserve">
<style type="text/css">
	.st0{fill-rule:evenodd;clip-rule:evenodd;fill:#8C8D8E;}
</style>
<path class="st0" d="M8.5,10.9C11.2,10.2,13,7.8,13,5c0-2.8-2.2-5-5-5S3,2.2,3,5c0,2.8,1.8,5.2,4.5,5.9l-0.2,0.5
	c-0.1,0.1,0,0.3,0.1,0.3c0.1,0.1,0.3,0,0.3-0.1l0-0.1c0,0.2,0,0.3,0.1,0.4c0.1,0.3,0.2,0.6,0.4,1.1l0,0c0.2,0.4,0.2,0.9,0.1,1.2
	c-0.1,0.4-0.4,0.8-0.5,1c-0.1,0.1,0,0.3,0.1,0.3c0.1,0.1,0.3,0,0.3-0.1l0,0c0.2-0.2,0.4-0.6,0.6-1.1C9,14,9,13.5,8.7,12.9
	c-0.3-0.5-0.4-0.7-0.4-1c0-0.1,0-0.2,0-0.3l0,0c0.1,0.1,0.2,0.2,0.3,0.1c0.1-0.1,0.2-0.2,0.1-0.3L8.5,10.9z M4.4,3.4
	C4.9,2.1,6.1,1.2,7.5,1C7.8,1,8,1.2,8,1.5S7.8,2,7.5,2C6.6,2.2,5.8,2.8,5.3,3.7C5.2,3.9,5,4,4.8,4C4.5,4,4.2,3.7,4.4,3.4"/>
</svg>
