<?xml version="1.0" encoding="utf-8"?>
<!-- Generator: Adobe Illustrator 26.0.0, SVG Export Plug-In . SVG Version: 6.00 Build 0)  -->
<svg version="1.1" id="Capa_1" xmlns="http://www.w3.org/2000/svg" xmlns:xlink="http://www.w3.org/1999/xlink" x="0px" y="0px"
	 viewBox="0 0 16 16" style="enable-background:new 0 0 16 16;" xml:space="preserve">
<style type="text/css">
	.st0{fill:#8C8D8E;}
</style>
<path class="st0" d="M8,3c0.8,0,1.5-0.7,1.5-1.5S8.8,0,8,0S6.5,0.7,6.5,1.5S7.2,3,8,3"/>
<path class="st0" d="M5.9,6.7l-0.8,8.5C5,15.6,5.3,16,5.7,16c0.4,0.1,0.8-0.2,0.9-0.7l0,0l0.8-4.9C7.5,10.2,7.8,10,8.1,10
	c0.3,0,0.4,0.2,0.5,0.5l0.8,4.9c0.1,0.4,0.4,0.7,0.9,0.7c0.4-0.1,0.7-0.4,0.7-0.9l-0.8-8.5c0-0.4,0.1-0.9,0.4-1.2L13,2.3
	c0.3-0.4,0.2-0.9-0.2-1.1C12.5,0.9,12,1,11.8,1.3L9.6,3.8C9.5,3.9,9.4,4,9.3,4.1C9.1,4.1,8.6,4.3,8,4.3c-0.6,0-1.1-0.1-1.3-0.2
	C6.6,4,6.5,3.9,6.4,3.8L4.2,1.3C4,0.9,3.5,0.9,3.1,1.2C2.8,1.5,2.7,1.9,3,2.3l2.5,3.2C5.8,5.8,6,6.3,5.9,6.7L5.9,6.7z"/>
</svg>
