<?xml version="1.0" encoding="utf-8"?>
<!-- Generator: Adobe Illustrator 26.0.0, SVG Export Plug-In . SVG Version: 6.00 Build 0)  -->
<svg version="1.1" id="Capa_1" xmlns="http://www.w3.org/2000/svg" xmlns:xlink="http://www.w3.org/1999/xlink" x="0px" y="0px"
	 viewBox="0 0 20 20" style="enable-background:new 0 0 20 20;" xml:space="preserve">
<style type="text/css">
	.st0{fill:#8C8D8E;}
</style>
<path class="st0" d="M4,1V0h2v1h8V0h2v1c0.5,0,1,0,1.4,0c0.3,0,0.6,0,1,0C19.3,1.2,20,2,20,2.9C20,3,20,3,20,3.1v14.8
	c0,0.8-0.4,1.5-1.1,1.9c-0.3,0.1-0.5,0.2-0.8,0.2c-0.1,0-0.2,0-0.2,0H2.1c-0.9,0-1.7-0.5-2-1.4C0,18.4,0,18.1,0,17.9V3.1
	C-0.1,2,0.8,1,1.9,1C2,1,2,1,2.1,1H4z M18,8H2v10h16V8z M6,4H4V3H2v3h16V3h-2v1h-2V3H6V4z"/>
<path class="st0" d="M5,10h2v2H5V10z"/>
<path class="st0" d="M15,10v2h-2v-2H15z"/>
<path class="st0" d="M5,14h2v2H5V14z"/>
<path class="st0" d="M9,10h2v2H9V10z"/>
<path class="st0" d="M9,16v-2h2v2H9z"/>
</svg>
