<svg id="Capa_1" data-name="Capa 1" xmlns="http://www.w3.org/2000/svg" viewBox="0 0 19.99 20"><path d="M9.41,0h1.17l.17,0A9,9,0,0,1,14,.83a9.87,9.87,0,0,1,5.87,7.49c.07.37.11.75.16,1.13v1.13a.83.83,0,0,0,0,.15A10,10,0,0,1,8.68,19.9a9.78,9.78,0,0,1-6.54-3.74A9.72,9.72,0,0,1,.09,8.67,9.63,9.63,0,0,1,2.55,3.34,9.74,9.74,0,0,1,8.3.16C8.67.09,9,.05,9.41,0ZM1.67,10A8.33,8.33,0,1,0,10,1.67,8.32,8.32,0,0,0,1.67,10Z" transform="translate(0)"/><path d="M10.82,7.25c0,.74,0,1.48,0,2.22a.47.47,0,0,0,.12.3l2.1,2.11a.83.83,0,0,1-.39,1.42.78.78,0,0,1-.74-.21L9.41,10.57A.78.78,0,0,1,9.17,10c0-1.66,0-3.33,0-5a.82.82,0,1,1,1.64,0c0,.75,0,1.5,0,2.25Z" transform="translate(0)"/></svg>