<svg id="Capa_1" data-name="Capa 1" xmlns="http://www.w3.org/2000/svg" viewBox="0 0 19.79 19.79"><path d="M18.85.11c0,.07.13,0,.19.05a1.26,1.26,0,0,1,.85,1.11V18.51a1.24,1.24,0,0,1-1.38,1.38H6.43a1.25,1.25,0,0,1-1.38-1.37V16.24a1.24,1.24,0,1,1,2.48,0c0,.33,0,.66,0,1,0,.16,0,.21.2.21h9.54c.12,0,.16,0,.16-.15V2.74c0-.12,0-.16-.15-.16H7.68c-.12,0-.16,0-.16.15,0,.36,0,.71,0,1.07a1.24,1.24,0,1,1-2.48,0V1.43A1.25,1.25,0,0,1,6,.15S6,.15,6,.11ZM.11,10.27s0,0,0,0a1.25,1.25,0,0,0,1.35.93h9a.42.42,0,0,1,.22,0c-.53.52-1.05,1-1.56,1.55a1.23,1.23,0,0,0,0,1.77,1.22,1.22,0,0,0,1.76,0c1.24-1.22,2.48-2.46,3.7-3.7a1.21,1.21,0,0,0,0-1.75l-3.7-3.7a1.19,1.19,0,0,0-.83-.36,1.22,1.22,0,0,0-1.17.73,1.19,1.19,0,0,0,.24,1.37l1.46,1.46.13.14H1.39a1.23,1.23,0,0,0-1.22.86s0,.09-.06.11Z" transform="translate(-0.11 -0.11)"/></svg>