<svg id="Capa_1" data-name="Capa 1" xmlns="http://www.w3.org/2000/svg" viewBox="0 0 20 19.99"><path d="M4,1V0H6V1h8V0h2V1c.48,0,.95,0,1.42,0a7.47,7.47,0,0,1,.95,0A2,2,0,0,1,20,2.9a1.48,1.48,0,0,1,0,.21V17.87a2,2,0,0,1-1.06,1.87,3.12,3.12,0,0,1-.82.24.87.87,0,0,1-.23,0H2.11a2,2,0,0,1-2-1.4A2.3,2.3,0,0,1,0,17.9V3.09A2,2,0,0,1,2.11,1ZM18,8H2V18H18ZM6,4H4V3H2V6H18V3H16V4H14V3H6Z" transform="translate(0 -0.01)"/><path d="M5,10H7v2H5Z" transform="translate(0 -0.01)"/><path d="M15,10v2H13V10Z" transform="translate(0 -0.01)"/><path d="M5,14H7v2H5Z" transform="translate(0 -0.01)"/><path d="M9,10h2v2H9Z" transform="translate(0 -0.01)"/><path d="M9,16V14h2v2Z" transform="translate(0 -0.01)"/></svg>