<svg id="Capa_1" data-name="Capa 1" xmlns="http://www.w3.org/2000/svg" viewBox="0 0 20 16.99"><path d="M12,4.73a8.21,8.21,0,0,1,4.36,2.76,8.06,8.06,0,0,1,1.88,5.15.77.77,0,0,1-.87.86H2.64a.77.77,0,0,1-.88-.89,8.24,8.24,0,0,1,6-7.8C8,4.76,8,4.7,8,4.54A11.41,11.41,0,0,1,8,3.23a2,2,0,0,1,2.12-1.72,2,2,0,0,1,1.86,2C12,3.89,12,4.3,12,4.73ZM11.4,7a.76.76,0,1,0,0,1.5,3.13,3.13,0,0,1,2.32,1.1c.18.2.33.42.5.62a.75.75,0,0,0,.85.22.68.68,0,0,0,.45-.74,1.44,1.44,0,0,0-.26-.58A4.79,4.79,0,0,0,11.4,7Z" transform="translate(0 -1.5)"/><path d="M10,18.49H2.15a2,2,0,0,1-2-1.19A2,2,0,0,1,2,14.5H18a2,2,0,0,1,.1,4c-.29,0-.59,0-.89,0Z" transform="translate(0 -1.5)"/></svg>