<svg id="Capa_1" data-name="Capa 1" xmlns="http://www.w3.org/2000/svg" viewBox="0 0 20 14.04"><path d="M9.61,3a10.11,10.11,0,0,1,5.44,1.5,13.8,13.8,0,0,1,4.3,4,7,7,0,0,1,.41.69,1.75,1.75,0,0,1,0,1.77,9.89,9.89,0,0,1-1.71,2.26,13.15,13.15,0,0,1-5,3.31,8.9,8.9,0,0,1-6.92-.33A13.49,13.49,0,0,1,.7,11.64c-.17-.24-.31-.5-.46-.76a1.72,1.72,0,0,1,0-1.79,10.71,10.71,0,0,1,2-2.56,13.11,13.11,0,0,1,4.62-3A8.59,8.59,0,0,1,9.61,3Zm.48,12a6.29,6.29,0,0,0,.65,0,6,6,0,0,0,.85-.15,11.06,11.06,0,0,0,5.91-4.09c.47-.6.46-.83,0-1.44a12,12,0,0,0-4.34-3.54A6.83,6.83,0,0,0,7.8,5.37,11.51,11.51,0,0,0,2.56,9.23c-.54.67-.53.88,0,1.56a11.8,11.8,0,0,0,3.66,3.15A8,8,0,0,0,10.09,15Z" transform="translate(0 -2.98)"/><path d="M10,13a3,3,0,0,1,0-6,3,3,0,1,1,0,6Zm0-2a1,1,0,1,0-1-1A1,1,0,0,0,10,11Z" transform="translate(0 -2.98)"/></svg>